<svg width="598" height="520" viewBox="0 0 598 520" fill="none" xmlns="http://www.w3.org/2000/svg">
<g clip-path="url(#clip0)">
<path d="M538.284 270.616C538.362 334.961 513.491 396.83 468.899 443.217C466.211 446.032 463.45 448.779 460.617 451.458C456.3 455.564 451.838 459.511 447.231 463.299C404.135 498.805 350.334 518.757 294.508 519.937C292.648 519.979 290.781 520 288.907 520C244.385 520 188.386 496.219 137.567 463.299C133.363 460.576 129.196 457.789 125.066 454.939C123.136 453.62 121.215 452.282 119.303 450.925C99.7031 437.085 81.0988 421.886 63.6273 405.44C52.1881 394.705 41.4611 383.234 31.5146 371.103C-7.53295 322.937 -16.1455 279.538 39.5235 270.616C46.1145 269.563 52.5113 268.438 58.7139 267.24C67.6984 265.513 76.2969 263.649 84.5093 261.646C95.5715 258.958 105.965 256.042 115.688 252.9C118.959 251.847 122.155 250.773 125.277 249.678C171.421 233.471 202.305 212.336 223.327 189.405C226.893 185.523 230.18 181.595 233.189 177.62C237.793 171.569 241.974 165.208 245.704 158.584C250.853 149.379 255.177 139.737 258.627 129.77L258.816 129.222C275.543 80.9727 270.454 36.2186 288.907 21.2397C367.789 -42.7961 465.994 48.3968 512.088 155.937C514.412 161.356 516.597 166.808 518.644 172.292C519.564 174.742 520.451 177.196 521.305 179.655C523.551 186.064 525.589 192.488 527.418 198.93C528.12 201.386 528.789 203.841 529.426 206.293C530.107 208.939 530.759 211.578 531.363 214.217C535.848 233.541 538.284 252.598 538.284 270.616Z" fill="#23263A"/>
<path d="M294.508 519.937C292.648 519.979 290.781 520 288.907 520C244.385 520 188.386 496.219 137.567 463.299C133.363 460.576 129.196 457.789 125.066 454.939L128.688 432.899L238.334 418.342L293.364 460.421L294.508 519.937Z" fill="#2F2E41"/>
<path d="M299.787 126.38H284.162C283.678 126.38 283.214 126.572 282.872 126.914C282.53 127.257 282.338 127.721 282.337 128.205V143.836C282.338 144.075 282.385 144.312 282.477 144.533C282.569 144.754 282.703 144.955 282.873 145.124C283.042 145.292 283.243 145.426 283.465 145.517C283.686 145.608 283.923 145.655 284.162 145.654H299.787C300.27 145.654 300.733 145.463 301.075 145.122C301.417 144.782 301.61 144.319 301.612 143.836V128.205C301.611 127.721 301.418 127.258 301.076 126.916C300.734 126.574 300.27 126.381 299.787 126.38V126.38Z" fill="white"/>
<path d="M299.787 153.017H284.162C283.678 153.018 283.214 153.21 282.872 153.552C282.53 153.894 282.338 154.358 282.337 154.842V170.474C282.338 170.713 282.385 170.95 282.477 171.171C282.569 171.392 282.703 171.593 282.873 171.761C283.042 171.93 283.243 172.064 283.465 172.155C283.686 172.246 283.923 172.293 284.162 172.292H299.787C300.27 172.292 300.733 172.101 301.075 171.76C301.417 171.419 301.61 170.957 301.612 170.474V154.842C301.611 154.359 301.418 153.895 301.076 153.553C300.734 153.211 300.27 153.019 299.787 153.017Z" fill="#E6E6E6"/>
<path d="M299.787 179.655H284.162C283.678 179.655 283.214 179.848 282.872 180.19C282.53 180.532 282.338 180.996 282.337 181.48V197.105C282.337 197.345 282.384 197.582 282.475 197.804C282.567 198.025 282.701 198.227 282.871 198.396C283.04 198.566 283.242 198.7 283.463 198.792C283.685 198.883 283.923 198.93 284.162 198.93H299.787C300.271 198.929 300.735 198.737 301.077 198.395C301.419 198.053 301.612 197.589 301.612 197.105V181.48C301.611 180.996 301.418 180.533 301.076 180.191C300.734 179.849 300.27 179.656 299.787 179.655V179.655Z" fill="#E6E6E6"/>
<path d="M301.584 207.795C301.506 207.375 301.284 206.995 300.956 206.72C300.628 206.446 300.214 206.295 299.787 206.293H284.162C283.678 206.293 283.214 206.485 282.872 206.828C282.53 207.17 282.338 207.634 282.337 208.118V223.742C282.337 223.982 282.384 224.22 282.475 224.441C282.567 224.663 282.701 224.864 282.871 225.034C283.04 225.203 283.242 225.338 283.463 225.429C283.685 225.521 283.922 225.568 284.162 225.567H299.787C300.271 225.567 300.735 225.375 301.077 225.033C301.419 224.69 301.612 224.226 301.612 223.742V208.118C301.613 208.009 301.604 207.901 301.584 207.795V207.795Z" fill="#E6E6E6"/>
<path d="M300.496 233.071C300.271 232.978 300.03 232.93 299.787 232.93H284.162C283.922 232.93 283.685 232.977 283.463 233.068C283.242 233.16 283.04 233.294 282.871 233.464C282.701 233.633 282.567 233.835 282.475 234.056C282.384 234.278 282.337 234.516 282.337 234.755V250.38C282.336 250.62 282.383 250.858 282.474 251.08C282.565 251.302 282.7 251.503 282.869 251.673C283.039 251.843 283.241 251.977 283.463 252.068C283.685 252.16 283.922 252.206 284.162 252.205H299.787C300.271 252.205 300.735 252.013 301.077 251.67C301.419 251.328 301.612 250.864 301.612 250.38V234.755C301.611 234.396 301.505 234.045 301.307 233.746C301.108 233.446 300.826 233.212 300.496 233.071Z" fill="#E6E6E6"/>
<path d="M332.608 126.38H316.984C316.5 126.38 316.036 126.572 315.693 126.914C315.351 127.257 315.159 127.721 315.159 128.205V143.836C315.159 144.075 315.206 144.312 315.298 144.533C315.39 144.754 315.525 144.955 315.694 145.124C315.864 145.292 316.065 145.426 316.286 145.517C316.507 145.608 316.744 145.655 316.984 145.654H332.608C333.091 145.654 333.554 145.463 333.896 145.122C334.239 144.782 334.432 144.319 334.433 143.836V128.205C334.432 127.721 334.239 127.258 333.897 126.916C333.555 126.574 333.092 126.381 332.608 126.38V126.38Z" fill="#E6E6E6"/>
<path d="M332.608 153.017H316.984C316.5 153.018 316.036 153.21 315.693 153.552C315.351 153.894 315.159 154.358 315.159 154.842V170.474C315.159 170.713 315.206 170.95 315.298 171.171C315.39 171.392 315.525 171.593 315.694 171.761C315.864 171.93 316.065 172.064 316.286 172.155C316.507 172.246 316.744 172.293 316.984 172.292H332.608C333.091 172.292 333.554 172.101 333.896 171.76C334.239 171.419 334.432 170.957 334.433 170.474V154.842C334.432 154.359 334.239 153.895 333.897 153.553C333.555 153.211 333.092 153.019 332.608 153.017Z" fill="#E9424F"/>
<path d="M332.608 179.655H316.984C316.5 179.655 316.036 179.848 315.693 180.19C315.351 180.532 315.159 180.996 315.159 181.48V197.105C315.158 197.345 315.205 197.582 315.297 197.804C315.388 198.025 315.523 198.227 315.692 198.396C315.862 198.566 316.063 198.7 316.285 198.792C316.506 198.883 316.744 198.93 316.984 198.93H332.608C333.092 198.929 333.556 198.737 333.898 198.395C334.241 198.053 334.433 197.589 334.433 197.105V181.48C334.432 180.996 334.239 180.533 333.897 180.191C333.555 179.849 333.092 179.656 332.608 179.655V179.655Z" fill="#E9424F"/>
<path d="M332.608 206.293H316.984C316.601 206.293 316.228 206.414 315.918 206.638C315.608 206.862 315.377 207.179 315.257 207.542C315.192 207.727 315.159 207.922 315.159 208.118V223.742C315.158 223.982 315.205 224.22 315.297 224.441C315.388 224.663 315.523 224.864 315.692 225.034C315.862 225.203 316.063 225.338 316.285 225.429C316.506 225.521 316.744 225.568 316.984 225.567H332.608C333.092 225.567 333.556 225.375 333.898 225.033C334.241 224.69 334.433 224.226 334.433 223.742V208.118C334.432 207.634 334.239 207.171 333.897 206.829C333.555 206.487 333.092 206.294 332.608 206.293V206.293Z" fill="#E9424F"/>
<path d="M332.608 232.93H316.984C316.744 232.93 316.506 232.977 316.285 233.068C316.063 233.16 315.862 233.294 315.692 233.464C315.523 233.633 315.388 233.835 315.297 234.056C315.205 234.278 315.158 234.516 315.159 234.755V250.38C315.158 250.62 315.205 250.857 315.297 251.079C315.388 251.301 315.523 251.502 315.692 251.672C315.862 251.841 316.063 251.976 316.285 252.067C316.506 252.159 316.744 252.206 316.984 252.205H332.608C333.092 252.205 333.556 252.013 333.898 251.67C334.241 251.328 334.433 250.864 334.433 250.38V234.755C334.433 234.271 334.241 233.807 333.898 233.465C333.556 233.123 333.092 232.931 332.608 232.93V232.93Z" fill="#E6E6E6"/>
<path d="M365.43 126.38H349.805C349.321 126.38 348.857 126.572 348.515 126.914C348.173 127.257 347.981 127.721 347.98 128.205V143.836C347.981 144.075 348.028 144.312 348.12 144.533C348.212 144.754 348.346 144.955 348.516 145.124C348.685 145.292 348.887 145.426 349.108 145.517C349.329 145.608 349.566 145.655 349.805 145.654H365.43C365.913 145.654 366.376 145.463 366.718 145.122C367.06 144.782 367.253 144.319 367.255 143.836V128.205C367.254 127.721 367.061 127.258 366.719 126.916C366.377 126.574 365.914 126.381 365.43 126.38V126.38Z" fill="#E9424F"/>
<path d="M365.43 153.017H349.805C349.321 153.018 348.857 153.21 348.515 153.552C348.173 153.894 347.981 154.358 347.98 154.842V170.474C347.981 170.713 348.028 170.95 348.12 171.171C348.212 171.392 348.346 171.593 348.516 171.761C348.685 171.93 348.887 172.064 349.108 172.155C349.329 172.246 349.566 172.293 349.805 172.292H365.43C365.913 172.292 366.376 172.101 366.718 171.76C367.06 171.419 367.253 170.957 367.255 170.474V154.842C367.254 154.359 367.061 153.895 366.719 153.553C366.377 153.211 365.914 153.019 365.43 153.017Z" fill="#E9424F"/>
<path d="M365.43 179.655H349.805C349.321 179.655 348.857 179.848 348.515 180.19C348.173 180.532 347.981 180.996 347.98 181.48V197.105C347.98 197.345 348.027 197.582 348.118 197.804C348.21 198.025 348.344 198.227 348.514 198.396C348.683 198.566 348.885 198.7 349.106 198.792C349.328 198.883 349.566 198.93 349.805 198.93H365.43C365.914 198.929 366.378 198.737 366.72 198.395C367.062 198.053 367.255 197.589 367.255 197.105V181.48C367.254 180.996 367.061 180.533 366.719 180.191C366.377 179.849 365.914 179.656 365.43 179.655V179.655Z" fill="#E6E6E6"/>
<path d="M365.43 206.293H349.805C349.321 206.293 348.857 206.485 348.515 206.828C348.173 207.17 347.981 207.634 347.98 208.118V223.742C347.98 223.982 348.027 224.22 348.118 224.441C348.21 224.663 348.344 224.864 348.514 225.034C348.683 225.203 348.885 225.338 349.106 225.429C349.328 225.521 349.566 225.568 349.805 225.567H365.43C365.914 225.567 366.378 225.375 366.72 225.033C367.062 224.69 367.255 224.226 367.255 223.742V208.118C367.254 207.634 367.061 207.171 366.719 206.829C366.377 206.487 365.914 206.294 365.43 206.293V206.293Z" fill="#E9424F"/>
<path d="M365.43 232.93H349.805C349.566 232.93 349.328 232.977 349.106 233.068C348.885 233.16 348.683 233.294 348.514 233.464C348.344 233.633 348.21 233.835 348.118 234.056C348.027 234.278 347.98 234.516 347.98 234.755V250.38C347.98 250.62 348.027 250.857 348.118 251.079C348.21 251.301 348.344 251.502 348.514 251.672C348.683 251.841 348.885 251.976 349.106 252.067C349.328 252.159 349.566 252.206 349.805 252.205H365.43C365.914 252.205 366.378 252.013 366.72 251.67C367.062 251.328 367.255 250.864 367.255 250.38V234.755C367.255 234.271 367.062 233.807 366.72 233.465C366.378 233.123 365.914 232.931 365.43 232.93V232.93Z" fill="#E9424F"/>
<path d="M398.252 126.38H382.627C382.143 126.38 381.679 126.572 381.337 126.914C380.995 127.257 380.802 127.721 380.802 128.205V143.836C380.802 144.075 380.85 144.312 380.942 144.533C381.034 144.754 381.168 144.955 381.338 145.124C381.507 145.292 381.708 145.426 381.93 145.517C382.151 145.608 382.388 145.655 382.627 145.654H398.252C398.735 145.654 399.198 145.463 399.54 145.122C399.882 144.782 400.075 144.319 400.077 143.836V128.205C400.075 127.721 399.883 127.258 399.541 126.916C399.199 126.574 398.735 126.381 398.252 126.38V126.38Z" fill="#E9424F"/>
<path d="M398.252 153.017H382.627C382.143 153.018 381.679 153.21 381.337 153.552C380.995 153.894 380.802 154.358 380.802 154.842V170.474C380.802 170.713 380.85 170.95 380.942 171.171C381.034 171.392 381.168 171.593 381.338 171.761C381.507 171.93 381.708 172.064 381.93 172.155C382.151 172.246 382.388 172.293 382.627 172.292H398.252C398.735 172.292 399.198 172.101 399.54 171.76C399.882 171.419 400.075 170.957 400.077 170.474V154.842C400.076 154.359 399.883 153.895 399.541 153.553C399.199 153.211 398.735 153.019 398.252 153.017V153.017Z" fill="white"/>
<path d="M398.252 179.655H382.627C382.143 179.655 381.679 179.848 381.337 180.19C380.995 180.532 380.802 180.996 380.802 181.48V197.105C380.802 197.345 380.849 197.582 380.94 197.804C381.032 198.025 381.166 198.227 381.336 198.396C381.505 198.566 381.707 198.7 381.928 198.792C382.15 198.883 382.387 198.93 382.627 198.93H398.252C398.736 198.929 399.2 198.737 399.542 198.395C399.884 198.053 400.077 197.589 400.077 197.105V181.48C400.076 180.996 399.883 180.533 399.541 180.191C399.199 179.849 398.735 179.656 398.252 179.655V179.655Z" fill="white"/>
<path d="M398.252 206.293H382.627C382.143 206.293 381.679 206.485 381.337 206.828C380.995 207.17 380.802 207.634 380.802 208.118V223.742C380.802 223.982 380.849 224.22 380.94 224.441C381.032 224.663 381.166 224.864 381.336 225.034C381.505 225.204 381.707 225.338 381.928 225.429C382.15 225.521 382.387 225.568 382.627 225.567H398.252C398.736 225.567 399.2 225.375 399.542 225.033C399.884 224.69 400.077 224.226 400.077 223.742V208.118C400.075 207.634 399.883 207.171 399.541 206.829C399.199 206.487 398.735 206.294 398.252 206.293V206.293Z" fill="#E6E6E6"/>
<path d="M398.252 232.93H382.627C382.387 232.93 382.15 232.977 381.928 233.068C381.707 233.16 381.505 233.294 381.336 233.464C381.166 233.633 381.032 233.835 380.94 234.056C380.849 234.278 380.802 234.516 380.802 234.755V250.38C380.802 250.62 380.849 250.857 380.94 251.079C381.032 251.301 381.166 251.502 381.336 251.672C381.505 251.841 381.707 251.976 381.928 252.067C382.15 252.159 382.387 252.206 382.627 252.205H398.252C398.736 252.205 399.2 252.013 399.542 251.67C399.884 251.328 400.077 250.864 400.077 250.38V234.755C400.077 234.271 399.884 233.807 399.542 233.465C399.2 233.123 398.736 232.931 398.252 232.93V232.93Z" fill="#E9424F"/>
<path d="M431.073 126.38H415.442C414.959 126.381 414.496 126.574 414.155 126.916C413.815 127.258 413.623 127.722 413.624 128.205V143.836C413.624 144.318 413.815 144.781 414.156 145.122C414.497 145.463 414.959 145.654 415.442 145.654H431.073C431.556 145.654 432.019 145.463 432.361 145.122C432.703 144.782 432.897 144.319 432.898 143.836V128.205C432.897 127.721 432.704 127.258 432.362 126.916C432.02 126.574 431.557 126.381 431.073 126.38Z" fill="white"/>
<path d="M431.073 153.017H415.442C414.959 153.019 414.496 153.212 414.155 153.554C413.815 153.896 413.623 154.359 413.624 154.842V170.474C413.624 170.956 413.815 171.418 414.156 171.759C414.497 172.1 414.959 172.292 415.442 172.292H431.073C431.556 172.292 432.019 172.101 432.361 171.76C432.704 171.419 432.897 170.957 432.898 170.474V154.842C432.897 154.359 432.704 153.895 432.362 153.553C432.02 153.211 431.557 153.019 431.073 153.017V153.017Z" fill="white"/>
<path d="M431.073 179.655H415.442C414.959 179.657 414.496 179.85 414.155 180.192C413.815 180.534 413.623 180.997 413.624 181.48V197.105C413.623 197.344 413.669 197.581 413.76 197.802C413.852 198.024 413.985 198.225 414.154 198.394C414.323 198.564 414.524 198.698 414.744 198.79C414.965 198.882 415.202 198.929 415.442 198.93H431.073C431.557 198.929 432.021 198.737 432.363 198.395C432.706 198.053 432.898 197.589 432.898 197.105V181.48C432.897 180.996 432.704 180.533 432.362 180.191C432.02 179.849 431.557 179.656 431.073 179.655V179.655Z" fill="white"/>
<path d="M431.073 206.293H415.442C414.959 206.294 414.496 206.487 414.155 206.83C413.815 207.172 413.623 207.635 413.624 208.118V223.742C413.623 223.982 413.669 224.219 413.76 224.44C413.851 224.661 413.985 224.862 414.154 225.032C414.323 225.201 414.524 225.336 414.744 225.428C414.965 225.52 415.202 225.567 415.442 225.567H431.073C431.557 225.567 432.021 225.375 432.363 225.033C432.706 224.69 432.898 224.226 432.898 223.742V208.118C432.897 207.634 432.704 207.171 432.362 206.829C432.02 206.487 431.557 206.294 431.073 206.293V206.293Z" fill="#E9424F"/>
<path d="M431.073 232.93H415.442C415.202 232.931 414.965 232.978 414.744 233.07C414.524 233.162 414.323 233.296 414.154 233.466C413.985 233.635 413.851 233.837 413.76 234.058C413.669 234.279 413.623 234.516 413.624 234.755V250.38C413.623 250.619 413.669 250.856 413.76 251.078C413.851 251.299 413.985 251.5 414.154 251.67C414.323 251.839 414.524 251.974 414.744 252.066C414.965 252.157 415.202 252.205 415.442 252.205H431.073C431.557 252.205 432.021 252.013 432.363 251.67C432.706 251.328 432.898 250.864 432.898 250.38V234.755C432.898 234.271 432.706 233.807 432.363 233.465C432.021 233.123 431.557 232.931 431.073 232.93V232.93Z" fill="#E6E6E6"/>
<path d="M463.895 126.38H448.263C447.78 126.381 447.318 126.574 446.977 126.916C446.636 127.258 446.445 127.722 446.445 128.205V143.836C446.445 144.318 446.637 144.781 446.978 145.122C447.319 145.463 447.781 145.654 448.263 145.654H463.895C464.378 145.654 464.841 145.463 465.183 145.122C465.525 144.782 465.718 144.319 465.72 143.836V128.205C465.719 127.721 465.526 127.258 465.184 126.916C464.842 126.574 464.379 126.381 463.895 126.38V126.38Z" fill="white"/>
<path d="M463.895 153.017H448.263C447.78 153.019 447.318 153.212 446.977 153.554C446.636 153.896 446.445 154.359 446.445 154.842V170.474C446.445 170.956 446.637 171.418 446.978 171.759C447.319 172.1 447.781 172.292 448.263 172.292H463.895C464.378 172.292 464.841 172.101 465.183 171.76C465.525 171.419 465.718 170.957 465.72 170.474V154.842C465.719 154.359 465.526 153.895 465.184 153.553C464.842 153.211 464.379 153.019 463.895 153.017V153.017Z" fill="white"/>
<path d="M463.895 179.655H448.263C447.78 179.657 447.318 179.85 446.977 180.192C446.636 180.534 446.445 180.997 446.445 181.48V197.105C446.445 197.344 446.491 197.581 446.582 197.802C446.673 198.024 446.807 198.225 446.976 198.394C447.145 198.564 447.345 198.698 447.566 198.79C447.787 198.882 448.024 198.929 448.263 198.93H463.895C464.379 198.929 464.843 198.737 465.185 198.395C465.527 198.053 465.72 197.589 465.72 197.105V181.48C465.719 180.996 465.526 180.533 465.184 180.191C464.842 179.849 464.379 179.656 463.895 179.655V179.655Z" fill="#E9424F"/>
<path d="M463.895 206.293H448.263C447.78 206.294 447.318 206.487 446.977 206.83C446.636 207.172 446.445 207.635 446.445 208.118V223.742C446.445 223.982 446.491 224.219 446.582 224.44C446.673 224.661 446.807 224.862 446.976 225.032C447.145 225.201 447.345 225.336 447.566 225.428C447.787 225.52 448.024 225.567 448.263 225.567H463.895C464.379 225.567 464.843 225.375 465.185 225.033C465.527 224.69 465.72 224.226 465.72 223.742V208.118C465.719 207.634 465.526 207.171 465.184 206.829C464.842 206.487 464.379 206.294 463.895 206.293V206.293Z" fill="#E6E6E6"/>
<path d="M463.895 232.93H448.263C448.024 232.931 447.787 232.978 447.566 233.07C447.345 233.162 447.145 233.296 446.976 233.466C446.807 233.635 446.673 233.837 446.582 234.058C446.491 234.279 446.445 234.516 446.445 234.755V250.38C446.445 250.619 446.491 250.856 446.582 251.078C446.673 251.299 446.807 251.5 446.976 251.67C447.145 251.839 447.345 251.974 447.566 252.066C447.787 252.157 448.024 252.205 448.263 252.205H463.895C464.379 252.205 464.843 252.012 465.185 251.67C465.527 251.328 465.72 250.864 465.72 250.38V234.755C465.72 234.271 465.527 233.807 465.185 233.465C464.843 233.123 464.379 232.931 463.895 232.93Z" fill="white"/>
<path d="M496.716 126.38H481.085C480.602 126.381 480.139 126.574 479.798 126.916C479.458 127.258 479.266 127.722 479.267 128.205V143.836C479.267 144.318 479.458 144.781 479.799 145.122C480.14 145.463 480.602 145.654 481.085 145.654H496.716C497.199 145.654 497.662 145.463 498.004 145.122C498.347 144.782 498.54 144.319 498.541 143.836V128.205C498.54 127.721 498.347 127.258 498.005 126.916C497.663 126.574 497.2 126.381 496.716 126.38V126.38Z" fill="#E9424F"/>
<path d="M496.716 153.017H481.085C480.602 153.019 480.139 153.212 479.798 153.554C479.458 153.896 479.266 154.359 479.267 154.842V170.474C479.267 170.956 479.458 171.418 479.799 171.759C480.14 172.1 480.602 172.292 481.085 172.292H496.716C497.199 172.292 497.662 172.101 498.004 171.76C498.347 171.419 498.54 170.957 498.541 170.474V154.842C498.54 154.359 498.347 153.895 498.005 153.553C497.663 153.211 497.2 153.019 496.716 153.017Z" fill="#E9424F"/>
<path d="M496.716 179.655H481.085C480.602 179.657 480.139 179.85 479.798 180.192C479.458 180.534 479.266 180.997 479.267 181.48V197.105C479.266 197.344 479.312 197.581 479.403 197.802C479.495 198.024 479.628 198.225 479.797 198.394C479.966 198.564 480.167 198.698 480.388 198.79C480.608 198.882 480.845 198.929 481.085 198.93H496.716C497.2 198.929 497.664 198.737 498.006 198.395C498.349 198.053 498.541 197.589 498.541 197.105V181.48C498.54 180.996 498.347 180.533 498.005 180.191C497.663 179.849 497.2 179.656 496.716 179.655V179.655Z" fill="#E6E6E6"/>
<path d="M496.716 206.293H481.085C480.602 206.294 480.139 206.487 479.798 206.83C479.458 207.172 479.266 207.635 479.267 208.118V223.742C479.266 223.982 479.312 224.219 479.403 224.44C479.495 224.661 479.628 224.862 479.797 225.032C479.966 225.201 480.167 225.336 480.388 225.428C480.608 225.52 480.845 225.567 481.085 225.567H496.716C497.2 225.567 497.664 225.375 498.006 225.033C498.349 224.69 498.541 224.226 498.541 223.742V208.118C498.54 207.634 498.347 207.171 498.005 206.829C497.663 206.487 497.2 206.294 496.716 206.293V206.293Z" fill="white"/>
<path d="M496.716 232.93H481.085C480.845 232.931 480.608 232.978 480.388 233.07C480.167 233.162 479.966 233.296 479.797 233.466C479.628 233.635 479.495 233.837 479.403 234.058C479.312 234.279 479.266 234.516 479.267 234.755V250.38C479.266 250.619 479.312 250.856 479.403 251.078C479.495 251.299 479.628 251.5 479.797 251.67C479.966 251.839 480.167 251.974 480.388 252.066C480.608 252.157 480.845 252.205 481.085 252.205H496.716C497.2 252.205 497.664 252.012 498.006 251.67C498.349 251.328 498.541 250.864 498.541 250.38V234.755C498.541 234.271 498.349 233.807 498.006 233.465C497.664 233.123 497.2 232.931 496.716 232.93Z" fill="#E9424F"/>
<path d="M529.538 126.38H513.906C513.424 126.381 512.961 126.574 512.62 126.916C512.279 127.258 512.088 127.722 512.088 128.205V143.836C512.088 144.318 512.28 144.781 512.621 145.122C512.962 145.463 513.424 145.654 513.906 145.654H529.538C530.021 145.654 530.484 145.463 530.826 145.122C531.168 144.782 531.361 144.319 531.363 143.836V128.205C531.362 127.721 531.169 127.258 530.827 126.916C530.485 126.574 530.022 126.381 529.538 126.38Z" fill="#E9424F"/>
<path d="M529.538 153.017H513.906C513.424 153.019 512.961 153.212 512.62 153.554C512.279 153.896 512.088 154.359 512.088 154.842V170.474C512.088 170.956 512.28 171.418 512.621 171.759C512.962 172.1 513.424 172.292 513.906 172.292H529.538C530.021 172.292 530.484 172.101 530.826 171.76C531.168 171.419 531.361 170.957 531.363 170.474V154.842C531.362 154.359 531.169 153.895 530.827 153.553C530.485 153.211 530.022 153.019 529.538 153.017V153.017Z" fill="#E9424F"/>
<path d="M529.538 179.655H513.906C513.424 179.657 512.961 179.85 512.62 180.192C512.279 180.534 512.088 180.997 512.088 181.48V197.105C512.088 197.344 512.134 197.581 512.225 197.802C512.316 198.024 512.45 198.225 512.619 198.394C512.788 198.564 512.988 198.698 513.209 198.79C513.43 198.882 513.667 198.929 513.906 198.93H529.538C530.022 198.929 530.486 198.737 530.828 198.395C531.17 198.053 531.363 197.589 531.363 197.105V181.48C531.362 180.996 531.169 180.533 530.827 180.191C530.485 179.849 530.022 179.656 529.538 179.655Z" fill="#E6E6E6"/>
<path d="M529.538 206.293H513.906C513.424 206.294 512.961 206.487 512.62 206.83C512.279 207.172 512.088 207.635 512.088 208.118V223.742C512.088 223.982 512.134 224.219 512.225 224.44C512.316 224.661 512.45 224.862 512.619 225.032C512.788 225.201 512.988 225.336 513.209 225.428C513.43 225.52 513.667 225.567 513.906 225.567H529.538C530.022 225.567 530.486 225.375 530.828 225.033C531.17 224.69 531.363 224.226 531.363 223.742V208.118C531.362 207.634 531.169 207.171 530.827 206.829C530.485 206.487 530.022 206.294 529.538 206.293V206.293Z" fill="#E9424F"/>
<path d="M529.538 232.93H513.906C513.667 232.931 513.43 232.978 513.209 233.07C512.988 233.162 512.788 233.296 512.619 233.466C512.45 233.635 512.316 233.837 512.225 234.058C512.134 234.279 512.088 234.516 512.088 234.755V250.38C512.088 250.619 512.134 250.856 512.225 251.078C512.316 251.299 512.45 251.5 512.619 251.67C512.788 251.839 512.988 251.974 513.209 252.066C513.43 252.157 513.667 252.205 513.906 252.205H529.538C530.022 252.205 530.486 252.012 530.828 251.67C531.17 251.328 531.363 250.864 531.363 250.38V234.755C531.363 234.271 531.17 233.807 530.828 233.465C530.486 233.123 530.022 232.931 529.538 232.93V232.93Z" fill="#E9424F"/>
<path d="M562.359 126.38H546.728C546.245 126.381 545.782 126.574 545.442 126.916C545.101 127.258 544.91 127.722 544.91 128.205V143.836C544.91 144.318 545.101 144.781 545.442 145.122C545.783 145.463 546.245 145.654 546.728 145.654H562.359C562.842 145.654 563.305 145.463 563.647 145.122C563.99 144.782 564.183 144.319 564.184 143.836V128.205C564.183 127.721 563.99 127.258 563.648 126.916C563.306 126.574 562.843 126.381 562.359 126.38V126.38Z" fill="#E6E6E6"/>
<path d="M562.359 153.017H546.728C546.245 153.019 545.782 153.212 545.442 153.554C545.101 153.896 544.909 154.359 544.91 154.842V170.474C544.91 170.956 545.101 171.418 545.442 171.759C545.783 172.1 546.245 172.292 546.728 172.292H562.359C562.842 172.292 563.305 172.101 563.647 171.76C563.99 171.419 564.183 170.957 564.184 170.474V154.842C564.183 154.359 563.99 153.895 563.648 153.553C563.306 153.211 562.843 153.019 562.359 153.017V153.017Z" fill="#E9424F"/>
<path d="M562.359 179.655H546.728C546.245 179.657 545.782 179.85 545.442 180.192C545.101 180.534 544.909 180.997 544.91 181.48V197.105C544.909 197.344 544.956 197.581 545.047 197.802C545.138 198.024 545.271 198.225 545.44 198.394C545.609 198.564 545.81 198.698 546.031 198.79C546.252 198.882 546.488 198.929 546.728 198.93H562.359C562.843 198.929 563.307 198.737 563.649 198.395C563.992 198.053 564.184 197.589 564.184 197.105V181.48C564.183 180.996 563.99 180.533 563.648 180.191C563.306 179.849 562.843 179.656 562.359 179.655V179.655Z" fill="#E9424F"/>
<path d="M562.359 206.293H546.728C546.245 206.294 545.782 206.487 545.442 206.83C545.101 207.172 544.91 207.635 544.91 208.118V223.742C544.909 223.982 544.956 224.219 545.047 224.44C545.138 224.661 545.271 224.862 545.44 225.032C545.609 225.201 545.81 225.336 546.031 225.428C546.251 225.52 546.488 225.567 546.728 225.567H562.359C562.843 225.567 563.307 225.375 563.65 225.033C563.992 224.69 564.184 224.226 564.184 223.742V208.118C564.183 207.634 563.99 207.171 563.648 206.829C563.306 206.487 562.843 206.294 562.359 206.293V206.293Z" fill="#E9424F"/>
<path d="M562.359 232.93H546.728C546.488 232.931 546.251 232.978 546.031 233.07C545.81 233.162 545.609 233.296 545.44 233.466C545.271 233.635 545.138 233.837 545.047 234.058C544.956 234.279 544.909 234.516 544.91 234.755V250.38C544.909 250.619 544.956 250.856 545.047 251.078C545.138 251.299 545.271 251.5 545.44 251.67C545.609 251.839 545.81 251.974 546.031 252.066C546.251 252.157 546.488 252.205 546.728 252.205H562.359C562.843 252.205 563.307 252.012 563.65 251.67C563.992 251.328 564.184 250.864 564.184 250.38V234.755C564.184 234.271 563.992 233.807 563.65 233.465C563.307 233.123 562.843 232.931 562.359 232.93V232.93Z" fill="#E6E6E6"/>
<path d="M595.181 126.38H579.549C579.067 126.381 578.604 126.574 578.263 126.916C577.923 127.258 577.731 127.722 577.731 128.205V143.836C577.732 144.318 577.923 144.781 578.264 145.122C578.605 145.463 579.067 145.654 579.549 145.654H595.181C595.664 145.654 596.127 145.463 596.469 145.122C596.811 144.782 597.004 144.319 597.006 143.836V128.205C597.005 127.721 596.812 127.258 596.47 126.916C596.128 126.574 595.665 126.381 595.181 126.38V126.38Z" fill="#E6E6E6"/>
<path d="M595.181 153.017H579.549C579.067 153.019 578.604 153.212 578.263 153.554C577.923 153.896 577.731 154.359 577.731 154.842V170.474C577.732 170.956 577.923 171.418 578.264 171.759C578.605 172.1 579.067 172.292 579.549 172.292H595.181C595.664 172.292 596.127 172.101 596.469 171.76C596.811 171.419 597.004 170.957 597.006 170.474V154.842C597.005 154.359 596.812 153.895 596.47 153.553C596.128 153.211 595.665 153.019 595.181 153.017V153.017Z" fill="#E6E6E6"/>
<path d="M595.181 179.655H579.549C579.067 179.657 578.604 179.85 578.263 180.192C577.923 180.534 577.731 180.997 577.731 181.48V197.105C577.731 197.344 577.777 197.581 577.868 197.802C577.959 198.024 578.093 198.225 578.262 198.394C578.431 198.564 578.632 198.698 578.852 198.79C579.073 198.882 579.31 198.929 579.549 198.93H595.181C595.665 198.929 596.129 198.737 596.471 198.395C596.814 198.053 597.006 197.589 597.006 197.105V181.48C597.005 180.996 596.812 180.533 596.47 180.191C596.128 179.849 595.665 179.656 595.181 179.655V179.655Z" fill="#E9424F"/>
<path d="M595.181 206.293H579.549C579.067 206.294 578.604 206.488 578.263 206.83C577.923 207.172 577.731 207.635 577.731 208.118V223.742C577.731 223.982 577.777 224.219 577.868 224.44C577.959 224.661 578.093 224.862 578.262 225.032C578.431 225.201 578.632 225.336 578.852 225.428C579.073 225.52 579.31 225.567 579.549 225.567H595.181C595.665 225.567 596.129 225.375 596.471 225.033C596.814 224.69 597.006 224.226 597.006 223.742V208.118C597.005 207.634 596.812 207.171 596.47 206.829C596.128 206.487 595.665 206.294 595.181 206.293V206.293Z" fill="#E6E6E6"/>
<path d="M595.181 232.93H579.549C579.31 232.931 579.073 232.978 578.852 233.07C578.632 233.162 578.431 233.296 578.262 233.466C578.093 233.635 577.959 233.837 577.868 234.058C577.777 234.279 577.731 234.516 577.731 234.755V250.38C577.731 250.619 577.777 250.856 577.868 251.078C577.959 251.299 578.093 251.5 578.262 251.67C578.431 251.839 578.632 251.974 578.852 252.066C579.073 252.157 579.31 252.205 579.549 252.205H595.181C595.665 252.205 596.129 252.012 596.471 251.67C596.814 251.328 597.006 250.864 597.006 250.38V234.755C597.006 234.271 596.814 233.807 596.471 233.465C596.129 233.123 595.665 232.931 595.181 232.93V232.93Z" fill="#E6E6E6"/>
<path d="M235.91 463.3H235.475L235.847 463.251L235.91 463.3Z" fill="#2F2E41"/>
<path d="M198.512 172.008C224.997 172.008 246.468 150.537 246.468 124.051C246.468 97.5659 224.997 76.0952 198.512 76.0952C172.026 76.0952 150.556 97.5659 150.556 124.051C150.556 150.537 172.026 172.008 198.512 172.008Z" fill="#FFB6B6"/>
<path d="M240.509 88.891C240.509 88.891 253.052 64.9129 225.457 62.733C225.457 62.733 201.933 41.3932 177.954 58.8318C177.954 58.8318 164.876 58.8318 157.723 73.6322C157.723 73.6322 147.437 69.7309 145.176 80.1716C145.176 80.1716 137.649 101.97 145.176 121.588C152.703 141.207 155.204 143.387 155.204 143.387C155.204 143.387 142.835 102.256 172.941 100.076C203.047 97.8958 236.736 79.0818 239.245 103.06C241.754 127.038 245.529 132.946 245.529 132.946C245.529 132.946 269.359 98.7003 240.509 88.891Z" fill="#2F2E41"/>
<path d="M322.564 242.238L322.41 243.052L320.676 252.205L308.694 315.518L307.985 319.245L306.497 327.128L304.462 337.881L299.948 361.711L298.657 368.541L298.172 371.103L298.004 372.001L296.663 379.069L296.256 381.203L292.985 405.44L290.128 426.561L299.689 436.121L293.989 441.821L290.248 463.25L290.255 463.299H137.567C131.39 459.298 125.302 455.173 119.303 450.925L120.56 441.519C120.56 441.519 124.884 424.722 123.065 422.715C121.255 420.707 117.282 417.12 117.282 417.12L122.286 405.44L122.981 403.819L121.816 379.652L121.788 379.069L121.402 371.103L121.353 370.078L121.276 368.541L119.795 337.881L119.767 337.376L119.317 328.082L118.896 319.245L118.714 315.518L116.91 278.225L115.688 252.9L114.622 230.853L118.91 229.4L164.781 213.81L183.781 189.11L223.327 189.405L242.686 189.552L274.988 219.51L282.337 223.019L282.394 223.047L287.665 225.567L301.029 231.948L315.159 238.7L322.41 242.161L322.564 242.238Z" fill="#E6E6E6"/>
<path d="M188.892 391.354C185.994 392.476 182.885 392.95 179.784 392.741C176.683 392.533 173.666 391.646 170.945 390.145C168.223 388.644 165.864 386.565 164.034 384.054C162.203 381.542 160.945 378.66 160.349 375.61L85.5537 364.998L111.555 335.587L178.595 350.173C183.786 349.511 189.039 350.775 193.359 353.727C197.679 356.68 200.766 361.114 202.035 366.19C203.304 371.266 202.667 376.631 200.245 381.269C197.822 385.907 193.783 389.495 188.892 391.354V391.354Z" fill="#FFB6B6"/>
<path d="M155.543 337.881C154.157 336.124 152.196 334.914 150.005 334.462L119.317 328.082L116.166 327.429C114.334 327.047 112.604 326.282 111.088 325.185C109.573 324.088 108.306 322.683 107.37 321.063C106.4 319.362 105.813 317.469 105.651 315.518C105.505 313.743 105.717 311.958 106.275 310.267L116.91 278.225L123.809 257.434C124.646 254.927 125.139 252.318 125.276 249.678C125.661 242.373 123.401 235.174 118.91 229.4C114.962 224.324 109.486 220.653 103.291 218.929C97.0965 217.205 90.5115 217.519 84.5091 219.826C84.3336 219.889 84.1511 219.959 83.9756 220.029C79.6709 221.748 75.825 224.444 72.7417 227.905C69.6585 231.366 67.4224 235.497 66.2101 239.971L58.7136 267.24L43.2504 323.456C41.7025 329.089 41.3898 334.989 42.3337 340.754C43.2776 346.518 45.4558 352.011 48.7193 356.855C51.9827 361.7 56.2544 365.782 61.2419 368.822C66.2294 371.863 71.8149 373.79 77.6162 374.472L121.816 379.652L142.27 382.052C144.635 382.337 147.02 381.719 148.951 380.324C150.881 378.928 152.215 376.856 152.686 374.521C152.719 374.394 152.745 374.265 152.763 374.135L153.255 371.102L157.417 345.567L157.459 345.307C157.676 344.004 157.618 342.67 157.288 341.391C156.957 340.112 156.363 338.916 155.543 337.881Z" fill="#E6E6E6"/>
<path d="M236.534 392.172C239.561 392.875 242.705 392.906 245.746 392.262C248.786 391.618 251.648 390.315 254.131 388.445C256.613 386.575 258.655 384.184 260.114 381.44C261.572 378.695 262.411 375.665 262.571 372.561L335.122 351.508L305.234 326.057L240.92 349.951C235.688 350.027 230.666 352.02 226.805 355.552C222.944 359.084 220.514 363.909 219.973 369.114C219.432 374.318 220.819 379.54 223.872 383.79C226.924 388.04 231.429 391.022 236.534 392.173V392.172Z" fill="#FFB6B6"/>
<path d="M371.144 304.414L336.638 224.999C333.815 218.479 328.775 213.17 322.41 210.013C320.442 209.044 318.376 208.291 316.247 207.767C315.917 207.683 315.587 207.605 315.257 207.542C310.742 206.557 306.059 206.644 301.584 207.795C297.493 208.846 293.67 210.748 290.363 213.376C287.056 216.004 284.341 219.299 282.394 223.048C282.372 223.079 282.354 223.112 282.337 223.146C280.162 227.354 279.006 232.013 278.961 236.75C278.915 241.486 279.983 246.167 282.078 250.415L282.506 251.272L306.89 300.244C307.723 301.919 308.192 303.751 308.267 305.619C308.342 307.488 308.021 309.352 307.325 311.088C306.629 312.823 305.574 314.393 304.229 315.692C302.884 316.991 301.279 317.992 299.52 318.627L297.808 319.245L267.008 330.37C264.696 331.195 262.795 332.884 261.705 335.083C260.614 337.281 260.419 339.817 261.161 342.156L261.238 342.401L269.871 370.029C269.913 370.155 269.956 370.281 270.005 370.408C270.081 370.646 270.174 370.878 270.285 371.103C271.203 373.161 272.825 374.823 274.859 375.792C276.893 376.761 279.207 376.973 281.383 376.388L298.004 372.001L301.394 371.103L344.317 359.767C349.964 358.274 355.223 355.579 359.732 351.866C364.241 348.152 367.895 343.508 370.443 338.251C372.99 332.995 374.372 327.249 374.493 321.409C374.614 315.569 373.472 309.771 371.144 304.414L371.144 304.414Z" fill="#E6E6E6"/>
<path d="M31.5146 371.103C41.4611 383.234 52.1881 394.705 63.6273 405.44H380.872C383.929 405.445 386.859 406.662 389.019 408.824C391.18 410.986 392.395 413.916 392.398 416.973L392.854 497.363C412.37 488.397 430.647 476.947 447.231 463.299C451.836 459.516 456.298 455.569 460.617 451.458C463.446 448.777 466.206 446.03 468.899 443.217C489.089 422.185 505.438 397.777 517.205 371.103H31.5146Z" fill="#3F3D56"/>
<path d="M468.899 443.217C466.211 446.032 463.45 448.779 460.617 451.458H393.085V443.217H468.899Z" fill="white"/>
<path d="M321.932 179.655C321.599 179.039 321.105 178.525 320.503 178.167C319.902 177.809 319.214 177.62 318.514 177.62H88.3979C87.3662 177.622 86.3776 178.034 85.6487 178.764C84.9199 179.494 84.5101 180.484 84.5093 181.515V319.245H322.41V181.515C322.413 180.864 322.249 180.224 321.932 179.655V179.655Z" fill="#3F3D56"/>
<path d="M84.3008 315.516V332.512C84.3008 333.217 84.4396 333.914 84.7092 334.565C84.9788 335.216 85.374 335.808 85.8722 336.306C86.3704 336.804 86.9619 337.199 87.6129 337.469C88.2638 337.739 88.9615 337.878 89.6661 337.878H177.473V371.42H176.307C176.215 371.42 176.125 371.438 176.04 371.473C175.956 371.508 175.879 371.559 175.814 371.624C175.749 371.689 175.698 371.765 175.663 371.85C175.628 371.934 175.61 372.025 175.61 372.117V374.45C175.61 374.541 175.628 374.632 175.663 374.716C175.698 374.801 175.749 374.878 175.814 374.943C175.879 375.007 175.956 375.059 176.04 375.094C176.125 375.129 176.215 375.147 176.307 375.147H230.817C230.908 375.147 230.999 375.129 231.083 375.094C231.168 375.059 231.245 375.007 231.31 374.943C231.374 374.878 231.426 374.801 231.461 374.716C231.496 374.632 231.514 374.541 231.514 374.45V372.117C231.514 372.025 231.496 371.934 231.461 371.85C231.426 371.765 231.374 371.689 231.31 371.624C231.245 371.559 231.168 371.508 231.083 371.473C230.999 371.438 230.908 371.42 230.817 371.42H229.65V337.878H317.458C318.162 337.878 318.86 337.739 319.511 337.469C320.162 337.199 320.753 336.804 321.251 336.306C321.75 335.808 322.145 335.216 322.414 334.565C322.684 333.914 322.823 333.217 322.823 332.512V315.516H84.3008Z" fill="#3F3D56"/>
<path d="M200.68 266.735C212.816 266.735 222.655 256.897 222.655 244.761C222.655 232.624 212.816 222.786 200.68 222.786C188.544 222.786 178.706 232.624 178.706 244.761C178.706 256.897 188.544 266.735 200.68 266.735Z" fill="#E9424F"/>
<path d="M256.668 121.431H253.159C253.159 94.8989 226.9 77.5124 200.41 77.4984C196.557 77.4871 192.712 77.861 188.933 78.6144C184.68 79.4637 180.265 80.4815 175.927 81.8081C158.821 87.0514 142.958 97.1871 142.958 121.431C142.954 126.14 143.553 130.829 144.741 135.385L141.343 136.27C140.083 131.424 139.446 126.438 139.448 121.431C139.448 100.247 148.145 85.6967 163.166 77.0211C171.063 72.4586 180.7 69.5176 191.741 68.0857C196.336 67.4744 200.981 67.3333 205.604 67.6645C236.067 69.8545 256.668 93.2142 256.668 121.431Z" fill="#E9424F"/>
<path d="M262.515 123.375L261.133 113.156C260.792 110.575 259.548 108.198 257.623 106.445C256.387 105.303 254.908 104.456 253.296 103.97C251.685 103.484 249.984 103.37 248.323 103.638L246.126 103.939C245.525 104.019 244.945 104.216 244.421 104.521C243.897 104.826 243.438 105.232 243.072 105.715C242.703 106.197 242.433 106.747 242.278 107.334C242.122 107.921 242.085 108.532 242.167 109.134L245.361 132.676C245.492 133.635 245.922 134.529 246.59 135.231C247.258 135.933 248.129 136.406 249.081 136.586C249.363 136.642 249.65 136.67 249.937 136.67C250.144 136.67 250.35 136.656 250.555 136.628L253.012 136.298C254.509 136.099 255.951 135.596 257.247 134.82C258.543 134.044 259.667 133.011 260.55 131.784C260.74 131.518 260.922 131.244 261.091 130.963C262.406 128.666 262.908 125.993 262.515 123.375Z" fill="#E9424F"/>
<path d="M244.708 104.367C244.063 104.681 243.503 105.142 243.072 105.715C242.703 106.197 242.433 106.747 242.278 107.334C242.122 107.92 242.085 108.532 242.167 109.133L245.361 132.676C245.492 133.635 245.922 134.529 246.59 135.231C247.258 135.932 248.129 136.406 249.081 136.585L244.708 104.367Z" fill="white"/>
<path d="M262.515 123.375L261.132 113.155C260.791 110.574 259.548 108.197 257.623 106.445L260.802 129.868C260.85 130.244 260.947 130.612 261.09 130.963C262.406 128.666 262.908 125.993 262.515 123.375V123.375Z" fill="#3F3D56"/>
<path d="M251.586 130.739C252.547 130.609 253.029 128.323 252.665 125.634C252.3 122.945 251.226 120.871 250.265 121.001C249.305 121.132 248.822 123.417 249.187 126.106C249.552 128.795 250.626 130.869 251.586 130.739Z" fill="#3F3D56"/>
<path d="M249.481 118.105C250.441 117.974 250.924 115.689 250.559 113C250.194 110.311 249.12 108.237 248.16 108.367C247.199 108.497 246.717 110.783 247.081 113.472C247.446 116.161 248.52 118.235 249.481 118.105Z" fill="#3F3D56"/>
<path d="M262.817 123.018C263.778 122.888 264.26 120.602 263.896 117.913C263.531 115.224 262.457 113.15 261.496 113.28C260.536 113.411 260.053 115.696 260.418 118.385C260.783 121.074 261.857 123.148 262.817 123.018Z" fill="#3F3D56"/>
<path d="M200.41 77.4981C196.557 77.4869 192.712 77.8607 188.933 78.6142C184.68 79.4635 180.265 80.4813 175.927 81.8079C169.153 81.478 164.17 79.7232 163.166 77.0208C171.063 72.4584 180.7 69.5173 191.741 68.0854C196.336 67.4742 200.981 67.3331 205.604 67.6643C206.093 67.9512 206.516 68.3384 206.845 68.8006C207.175 69.2627 207.402 69.7893 207.513 70.3456C207.843 72.7883 205.056 75.3853 200.41 77.4981Z" fill="#3F3D56"/>
<path d="M155.599 145.788L150.195 123.319C150.002 122.509 149.574 121.773 148.964 121.205C148.355 120.637 147.591 120.261 146.769 120.125C146.537 120.089 146.302 120.071 146.067 120.069C145.736 120.071 145.406 120.111 145.085 120.189L142.993 120.694C140.3 121.345 137.975 123.039 136.529 125.402C135.083 127.765 134.633 130.606 135.279 133.3L137.7 143.38C138.253 145.753 139.57 147.879 141.449 149.431C141.753 149.676 142.072 149.904 142.403 150.111C143.58 150.849 144.892 151.343 146.263 151.565C147.634 151.787 149.035 151.732 150.384 151.403L152.469 150.898C153.02 150.769 153.539 150.528 153.992 150.189C154.666 149.697 155.179 149.016 155.465 148.233C155.751 147.449 155.798 146.598 155.599 145.788Z" fill="#E9424F"/>
<path d="M144.269 141.607C145.211 141.38 145.46 139.058 144.825 136.42C144.191 133.781 142.912 131.826 141.97 132.053C141.028 132.28 140.778 134.602 141.413 137.241C142.048 139.879 143.327 141.834 144.269 141.607Z" fill="#3F3D56"/>
<path d="M137.25 143.713C138.192 143.486 138.441 141.164 137.806 138.525C137.171 135.887 135.893 133.932 134.951 134.159C134.008 134.386 133.759 136.708 134.394 139.346C135.029 141.985 136.308 143.94 137.25 143.713Z" fill="#3F3D56"/>
<path d="M155.944 145.703L150.539 123.235C150.328 122.358 149.864 121.562 149.203 120.948C148.543 120.334 147.716 119.928 146.826 119.781L154.203 150.469C154.931 149.936 155.486 149.198 155.795 148.35C156.105 147.502 156.157 146.581 155.944 145.703V145.703Z" fill="white"/>
<path d="M136.5 128.851C136.351 128.226 136.071 127.64 135.679 127.131C134.919 129.098 134.78 131.251 135.279 133.301L137.701 143.38C138.254 145.753 139.57 147.879 141.449 149.431L136.5 128.851Z" fill="#3F3D56"/>
</g>
<defs>
<clipPath id="clip0">
<rect width="597.006" height="520" fill="white"/>
</clipPath>
</defs>
</svg>
